<svg width="16" height="12" viewBox="0 0 16 12" fill="none" xmlns="http://www.w3.org/2000/svg">
<path d="M15.6842 6.16406C15.6842 6.07813 15.6513 6.00782 15.5855 5.94531L10.0263 0.632812C9.903 0.5 9.81248 0.46875 9.72203 0.46875C9.54115 0.46875 9.40136 0.601562 9.40136 0.765624C9.40136 0.85156 9.42603 0.929688 9.4918 0.984376L12.7731 4.10938L14.7385 5.91406L12.9375 5.86718H0.725342C0.552645 5.86718 0.412842 5.99218 0.412842 6.16406C0.412842 6.33594 0.552645 6.46094 0.725342 6.46094H12.9375L14.7385 6.42187L12.7731 8.21872L9.4918 11.3438C9.4342 11.3984 9.40136 11.4844 9.40136 11.5703C9.40136 11.7266 9.54115 11.8594 9.72203 11.8594C9.81248 11.8594 9.8865 11.8282 9.95235 11.7656L15.5855 6.38282C15.6513 6.32031 15.6842 6.25 15.6842 6.16406Z" fill="white"/>
</svg>
