<svg width="30" height="30" viewBox="0 0 30 30" fill="none" xmlns="http://www.w3.org/2000/svg">
<path fill-rule="evenodd" clip-rule="evenodd" d="M4.6875 22.5C4.6875 22.2514 4.78627 22.0129 4.96209 21.8371C5.1379 21.6613 5.37636 21.5625 5.625 21.5625H24.375C24.6236 21.5625 24.8621 21.6613 25.0379 21.8371C25.2137 22.0129 25.3125 22.2514 25.3125 22.5C25.3125 22.7486 25.2137 22.9871 25.0379 23.1629C24.8621 23.3387 24.6236 23.4375 24.375 23.4375H5.625C5.37636 23.4375 5.1379 23.3387 4.96209 23.1629C4.78627 22.9871 4.6875 22.7486 4.6875 22.5ZM4.6875 15C4.6875 14.7514 4.78627 14.5129 4.96209 14.3371C5.1379 14.1613 5.37636 14.0625 5.625 14.0625H24.375C24.6236 14.0625 24.8621 14.1613 25.0379 14.3371C25.2137 14.5129 25.3125 14.7514 25.3125 15C25.3125 15.2486 25.2137 15.4871 25.0379 15.6629C24.8621 15.8387 24.6236 15.9375 24.375 15.9375H5.625C5.37636 15.9375 5.1379 15.8387 4.96209 15.6629C4.78627 15.4871 4.6875 15.2486 4.6875 15ZM4.6875 7.5C4.6875 7.25136 4.78627 7.0129 4.96209 6.83709C5.1379 6.66127 5.37636 6.5625 5.625 6.5625H24.375C24.6236 6.5625 24.8621 6.66127 25.0379 6.83709C25.2137 7.0129 25.3125 7.25136 25.3125 7.5C25.3125 7.74864 25.2137 7.9871 25.0379 8.16291C24.8621 8.33873 24.6236 8.4375 24.375 8.4375H5.625C5.37636 8.4375 5.1379 8.33873 4.96209 8.16291C4.78627 7.9871 4.6875 7.74864 4.6875 7.5V7.5Z" fill="white"/>
</svg>
