<svg width="195" height="22" viewBox="0 0 195 22" fill="none" xmlns="http://www.w3.org/2000/svg">
<path d="M15.75 3.44998V21H11.475V13.775H4.82505V21H0.550049V3.44998H4.82505V10.325H11.475V3.44998H15.75ZM34.3611 7.04998V21H30.0861V19.1C29.6528 19.7167 29.0611 20.2167 28.3111 20.6C27.5778 20.9667 26.7611 21.15 25.8611 21.15C24.7945 21.15 23.8528 20.9167 23.0361 20.45C22.2195 19.9667 21.5862 19.275 21.1362 18.375C20.6862 17.475 20.4611 16.4167 20.4611 15.2V7.04998H24.7111V14.625C24.7111 15.5583 24.9528 16.2833 25.4361 16.8C25.9195 17.3167 26.5696 17.575 27.3862 17.575C28.2196 17.575 28.8778 17.3167 29.3611 16.8C29.8445 16.2833 30.0861 15.5583 30.0861 14.625V7.04998H34.3611ZM44.8568 21.2C43.6402 21.2 42.5568 20.9917 41.6068 20.575C40.6568 20.1583 39.9068 19.5917 39.3568 18.875C38.8068 18.1417 38.4986 17.325 38.4319 16.425H42.6568C42.7068 16.9083 42.9318 17.3 43.3318 17.6C43.7318 17.9 44.2236 18.05 44.8069 18.05C45.3403 18.05 45.7485 17.95 46.0318 17.75C46.3318 17.5333 46.4818 17.2583 46.4818 16.925C46.4818 16.525 46.2735 16.2333 45.8568 16.05C45.4402 15.85 44.7652 15.6333 43.8318 15.4C42.8318 15.1667 41.9985 14.925 41.3318 14.675C40.6652 14.4083 40.0902 14 39.6068 13.45C39.1235 12.8833 38.8819 12.125 38.8819 11.175C38.8819 10.375 39.0985 9.64998 39.5318 8.99998C39.9818 8.33331 40.6318 7.80831 41.4818 7.42498C42.3485 7.04165 43.3736 6.84998 44.5569 6.84998C46.3069 6.84998 47.6819 7.28331 48.6819 8.14998C49.6986 9.01665 50.2819 10.1667 50.4319 11.6H46.4818C46.4152 11.1167 46.1985 10.7333 45.8318 10.45C45.4818 10.1667 45.0153 10.025 44.4319 10.025C43.9319 10.025 43.5485 10.125 43.2818 10.325C43.0152 10.5083 42.8819 10.7667 42.8819 11.1C42.8819 11.5 43.0903 11.8 43.5069 12C43.9403 12.2 44.6069 12.4 45.5069 12.6C46.5403 12.8667 47.3818 13.1333 48.0318 13.4C48.6818 13.65 49.2485 14.0667 49.7318 14.65C50.2318 15.2167 50.4903 15.9833 50.5069 16.95C50.5069 17.7667 50.2736 18.5 49.8069 19.15C49.3569 19.7833 48.6985 20.2833 47.8318 20.65C46.9818 21.0167 45.9902 21.2 44.8568 21.2ZM60.5473 21.2C59.3306 21.2 58.2473 20.9917 57.2973 20.575C56.3473 20.1583 55.5973 19.5917 55.0473 18.875C54.4973 18.1417 54.1889 17.325 54.1223 16.425H58.3474C58.3974 16.9083 58.6224 17.3 59.0224 17.6C59.4224 17.9 59.9139 18.05 60.4973 18.05C61.0306 18.05 61.439 17.95 61.7224 17.75C62.0224 17.5333 62.1723 17.2583 62.1723 16.925C62.1723 16.525 61.9639 16.2333 61.5473 16.05C61.1306 15.85 60.4557 15.6333 59.5224 15.4C58.5224 15.1667 57.689 14.925 57.0224 14.675C56.3557 14.4083 55.7806 14 55.2973 13.45C54.8139 12.8833 54.5723 12.125 54.5723 11.175C54.5723 10.375 54.789 9.64998 55.2224 8.99998C55.6724 8.33331 56.3223 7.80831 57.1723 7.42498C58.0389 7.04165 59.0639 6.84998 60.2473 6.84998C61.9973 6.84998 63.3723 7.28331 64.3723 8.14998C65.3889 9.01665 65.9723 10.1667 66.1223 11.6H62.1723C62.1056 11.1167 61.889 10.7333 61.5224 10.45C61.1724 10.1667 60.7056 10.025 60.1223 10.025C59.6223 10.025 59.239 10.125 58.9724 10.325C58.7057 10.5083 58.5723 10.7667 58.5723 11.1C58.5723 11.5 58.7806 11.8 59.1973 12C59.6306 12.2 60.2973 12.4 61.1973 12.6C62.2306 12.8667 63.0724 13.1333 63.7224 13.4C64.3724 13.65 64.9389 14.0667 65.4223 14.65C65.9223 15.2167 66.1806 15.9833 66.1973 16.95C66.1973 17.7667 65.9639 18.5 65.4973 19.15C65.0473 19.7833 64.389 20.2833 63.5224 20.65C62.6724 21.0167 61.6806 21.2 60.5473 21.2ZM83.7127 13.8C83.7127 14.2 83.6877 14.6167 83.6377 15.05H73.9627C74.0294 15.9167 74.3044 16.5833 74.7877 17.05C75.2877 17.5 75.896 17.725 76.6127 17.725C77.6794 17.725 78.421 17.275 78.8377 16.375H83.3877C83.1544 17.2917 82.7294 18.1167 82.1127 18.85C81.5127 19.5833 80.7544 20.1583 79.8377 20.575C78.921 20.9917 77.896 21.2 76.7627 21.2C75.396 21.2 74.1794 20.9083 73.1127 20.325C72.046 19.7417 71.2127 18.9083 70.6127 17.825C70.0127 16.7417 69.7127 15.475 69.7127 14.025C69.7127 12.575 70.0044 11.3083 70.5877 10.225C71.1877 9.14165 72.021 8.30831 73.0877 7.72498C74.1544 7.14165 75.3794 6.84998 76.7627 6.84998C78.1127 6.84998 79.3127 7.13331 80.3627 7.69998C81.4127 8.26665 82.2294 9.07498 82.8127 10.125C83.4127 11.175 83.7127 12.4 83.7127 13.8ZM79.3377 12.675C79.3377 11.9417 79.0877 11.3583 78.5877 10.925C78.0877 10.4917 77.4627 10.275 76.7127 10.275C75.996 10.275 75.3877 10.4833 74.8877 10.9C74.4044 11.3167 74.1044 11.9083 73.9877 12.675H79.3377ZM96.218 6.89998C97.8513 6.89998 99.1513 7.43331 100.118 8.49998C101.101 9.54998 101.593 11 101.593 12.85V21H97.343V13.425C97.343 12.4917 97.1013 11.7667 96.618 11.25C96.1346 10.7333 95.4846 10.475 94.668 10.475C93.8513 10.475 93.2013 10.7333 92.718 11.25C92.2346 11.7667 91.993 12.4917 91.993 13.425V21H87.718V7.04998H91.993V8.89998C92.4263 8.28331 93.0096 7.79998 93.743 7.44998C94.4763 7.08331 95.3013 6.89998 96.218 6.89998ZM125.987 3.44998V6.87498H121.337V21H117.062V6.87498H112.412V3.44998H125.987ZM129.032 14C129.032 12.5667 129.299 11.3083 129.832 10.225C130.382 9.14165 131.124 8.30831 132.057 7.72498C132.99 7.14165 134.032 6.84998 135.182 6.84998C136.165 6.84998 137.024 7.04998 137.757 7.44998C138.507 7.84998 139.082 8.37498 139.482 9.02498V7.04998H143.757V21H139.482V19.025C139.065 19.675 138.482 20.2 137.732 20.6C136.999 21 136.14 21.2 135.157 21.2C134.024 21.2 132.99 20.9083 132.057 20.325C131.124 19.725 130.382 18.8833 129.832 17.8C129.299 16.7 129.032 15.4333 129.032 14ZM139.482 14.025C139.482 12.9583 139.182 12.1167 138.582 11.5C137.999 10.8833 137.282 10.575 136.432 10.575C135.582 10.575 134.857 10.8833 134.257 11.5C133.674 12.1 133.382 12.9333 133.382 14C133.382 15.0667 133.674 15.9167 134.257 16.55C134.857 17.1667 135.582 17.475 136.432 17.475C137.282 17.475 137.999 17.1667 138.582 16.55C139.182 15.9333 139.482 15.0917 139.482 14.025ZM150.75 5.59998C150 5.59998 149.383 5.38331 148.9 4.94998C148.433 4.49998 148.2 3.94998 148.2 3.29998C148.2 2.63331 148.433 2.08331 148.9 1.64998C149.383 1.19998 150 0.974976 150.75 0.974976C151.483 0.974976 152.083 1.19998 152.55 1.64998C153.033 2.08331 153.275 2.63331 153.275 3.29998C153.275 3.94998 153.033 4.49998 152.55 4.94998C152.083 5.38331 151.483 5.59998 150.75 5.59998ZM152.875 7.04998V21H148.6V7.04998H152.875ZM177.748 7.04998L173.973 21H169.248L167.048 11.95L164.773 21H160.073L156.273 7.04998H160.548L162.523 17.025L164.873 7.04998H169.398L171.773 16.975L173.723 7.04998H177.748ZM187.478 21.2C186.111 21.2 184.878 20.9083 183.778 20.325C182.695 19.7417 181.836 18.9083 181.203 17.825C180.586 16.7417 180.278 15.475 180.278 14.025C180.278 12.5917 180.595 11.3333 181.228 10.25C181.861 9.14998 182.728 8.30831 183.828 7.72498C184.928 7.14165 186.161 6.84998 187.528 6.84998C188.895 6.84998 190.128 7.14165 191.228 7.72498C192.328 8.30831 193.195 9.14998 193.828 10.25C194.461 11.3333 194.778 12.5917 194.778 14.025C194.778 15.4583 194.453 16.725 193.803 17.825C193.17 18.9083 192.295 19.7417 191.178 20.325C190.078 20.9083 188.845 21.2 187.478 21.2ZM187.478 17.5C188.295 17.5 188.986 17.2 189.553 16.6C190.136 16 190.428 15.1417 190.428 14.025C190.428 12.9083 190.145 12.05 189.578 11.45C189.028 10.85 188.345 10.55 187.528 10.55C186.695 10.55 186.003 10.85 185.453 11.45C184.903 12.0333 184.628 12.8917 184.628 14.025C184.628 15.1417 184.895 16 185.428 16.6C185.978 17.2 186.661 17.5 187.478 17.5Z" fill="white"/>
</svg>
