<svg width="20" height="20" viewBox="0 0 20 20" fill="none" xmlns="http://www.w3.org/2000/svg">
<path d="M6.2825 18.75C13.83 18.75 17.9587 12.4963 17.9587 7.08251C17.9587 6.90751 17.9588 6.73001 17.9513 6.55501C18.7551 5.97312 19.4488 5.2527 20 4.42751C19.2491 4.75858 18.4535 4.97677 17.6388 5.07501C18.4969 4.56206 19.1397 3.75497 19.4475 2.80376C18.6412 3.28142 17.7588 3.61673 16.8387 3.79501C16.2202 3.13629 15.4018 2.69991 14.5101 2.55346C13.6185 2.40701 12.7034 2.55866 11.9067 2.98493C11.1099 3.4112 10.476 4.0883 10.1031 4.91134C9.73012 5.73438 9.63897 6.65743 9.84375 7.53751C8.21218 7.4557 6.61602 7.03185 5.1588 6.29344C3.70159 5.55503 2.41586 4.51857 1.385 3.25126C0.861675 4.15512 0.701967 5.22426 0.938308 6.24159C1.17465 7.25893 1.78932 8.14817 2.6575 8.72876C2.00692 8.70666 1.37065 8.53196 0.8 8.21876V8.27501C0.801122 9.22186 1.12913 10.1393 1.72859 10.8722C2.32805 11.6051 3.16218 12.1086 4.09 12.2975C3.73783 12.3945 3.37404 12.4429 3.00875 12.4413C2.75123 12.442 2.49423 12.4182 2.24125 12.37C2.50348 13.1851 3.01409 13.8977 3.70156 14.4081C4.38903 14.9185 5.21892 15.2011 6.075 15.2163C4.62069 16.3585 2.82425 16.978 0.975 16.975C0.649151 16.9764 0.323529 16.9576 0 16.9188C1.87689 18.1153 4.05662 18.7507 6.2825 18.75V18.75Z" fill="white"/>
</svg>
